<?xml version="1.0" standalone="no"?>
<!DOCTYPE svg PUBLIC "-//W3C//DTD SVG 20010904//EN"
 "http://www.w3.org/TR/2001/REC-SVG-20010904/DTD/svg10.dtd">
<svg version="1.0" xmlns="http://www.w3.org/2000/svg"
 width="100.000000pt" height="77.000000pt" viewBox="0 0 100.000000 77.000000"
 preserveAspectRatio="xMidYMid meet">

<g transform="translate(0.000000,77.000000) scale(0.100000,-0.100000)"
fill="#000" stroke="none">
<path d="M505 710 c157 -14 275 -74 342 -174 42 -62 56 -117 50 -191 l-5 -60
15 40 c18 52 10 108 -28 184 -65 130 -220 214 -392 210 l-62 -2 80 -7z"/>
<path d="M211 620 c-58 -46 -97 -107 -117 -186 -13 -49 -13 -61 1 -112 48
-169 203 -274 404 -273 88 0 196 25 236 55 17 13 12 13 -34 -1 -38 -11 -83
-14 -156 -11 -94 3 -108 6 -177 41 -94 46 -168 122 -193 198 -34 101 -7 218
68 297 42 43 29 40 -32 -8z"/>
<path d="M315 511 c-81 -20 -117 -59 -94 -102 l12 -23 19 27 c20 27 77 67 97
67 6 0 -7 -23 -29 -52 -65 -81 -94 -150 -74 -171 6 -6 114 137 114 150 0 4
-12 -4 -27 -18 -37 -32 -13 1 40 58 60 63 37 87 -58 64z"/>
<path d="M615 505 c-91 -24 -126 -41 -170 -85 -58 -57 -58 -45 1 21 73 82 28
91 -58 11 -16 -14 -28 -30 -28 -36 0 -5 17 6 37 25 l37 34 -27 -35 c-36 -47
-78 -126 -70 -134 15 -15 32 -2 71 54 54 76 71 78 26 3 -36 -60 -40 -86 -13
-91 11 -2 18 6 22 26 11 54 67 115 141 152 64 32 76 34 163 35 56 0 92 4 90
10 -9 25 -141 32 -222 10z"/>
<path d="M618 442 c-7 -10 -31 -27 -52 -38 -41 -20 -66 -48 -53 -60 4 -4 16 2
27 14 32 34 32 27 1 -35 -44 -85 -27 -83 31 3 44 66 53 75 74 70 25 -7 34 8
12 18 -9 3 -6 11 11 25 l23 21 -30 0 c-18 0 -36 -7 -44 -18z"/>
</g>
</svg>
